Coordinates
version=1
nRows=13
nColumns=38
inDegrees=no

Units are S.I. units (second, meters, Newtons, ...)
If the header above contains a line with 'inDegrees', this indicates whether rotational values are in degrees (yes) or radians (no).

endheader
time	pelvis_tilt	pelvis_list	pelvis_rotation	pelvis_tx	pelvis_ty	pelvis_tz	hip_flexion_r	hip_adduction_r	hip_rotation_r	knee_angle_r	ankle_angle_r	subtalar_angle_r	mtp_angle_r	hip_flexion_l	hip_adduction_l	hip_rotation_l	knee_angle_l	ankle_angle_l	subtalar_angle_l	mtp_angle_l	lumbar_extension	lumbar_bending	lumbar_rotation	arm_flex_r	arm_add_r	arm_rot_r	elbow_flex_r	pro_sup_r	wrist_flex_r	wrist_dev_r	arm_flex_l	arm_add_l	arm_rot_l	elbow_flex_l	pro_sup_l	wrist_flex_l	wrist_dev_l
0	-2.71494	1.46301	-2.05064	0.644048	-0.47282	0.944391	-0.185451	0.0110203	-0.151323	0.00851383	0.100906	0	0	0.438758	-0.0721349	-0.161963	1.1117	0.219223	0	0	-0.28406	-0.0666658	-0.0788752	-0.070744	-0.266751	0.205934	0.506998	0.997559	0	0	-0.105506	-0.371795	0.269994	0.689054	1.22192	0	0
0.01	-2.722	1.46439	-2.0468	0.64487	-0.464012	0.943566	-0.194734	0.0125785	-0.150689	0.00901087	0.10868	0	0	0.44436	-0.0685899	-0.166716	1.06156	0.219059	0	0	-0.283094	-0.0665122	-0.075756	-0.0686721	-0.266741	0.206644	0.505233	0.996993	0	0	-0.100172	-0.371098	0.272956	0.690552	1.21601	0	0
0.02	-2.73127	1.46412	-2.04048	0.645823	-0.455028	0.942792	-0.207546	0.0137739	-0.146608	0.00671505	0.114989	0	0	0.444123	-0.0646432	-0.174241	1.00447	0.217143	0	0	-0.284114	-0.0672094	-0.0742424	-0.0652572	-0.265508	0.208014	0.501683	0.996027	0	0	-0.0964484	-0.371367	0.275629	0.692344	1.20644	0	0
0.03	-2.74733	1.46403	-2.02699	0.646747	-0.445939	0.941869	-0.220537	0.0156822	-0.142559	0.00462617	0.121418	0	0	0.440868	-0.061095	-0.183432	0.942302	0.214956	0	0	-0.285347	-0.067092	-0.0733831	-0.0615214	-0.26398	0.209693	0.497636	0.995403	0	0	-0.0934617	-0.371819	0.278358	0.694245	1.19698	0	0
0.04	-2.76901	1.46465	-2.00753	0.647574	-0.43675	0.940756	-0.232786	0.0182746	-0.138904	0.00339513	0.128329	0	0	0.435198	-0.0576811	-0.194106	0.874722	0.21226	0	0	-0.286017	-0.0659681	-0.072725	-0.0579712	-0.262414	0.211145	0.493531	0.99514	0	0	-0.0905666	-0.372032	0.281617	0.696291	1.18843	0	0
0.05	-2.98404	1.46574	-1.80526	0.64851	-0.425655	0.939219	-0.257175	0.0392812	-0.132701	0	0.127763	0	0	0.432701	-0.129613	-0.313571	0.85196	0.220598	0	0	-0.28775	-0.043815	-0.0560224	-0.0634254	-0.27175	0.215094	0.502245	0.991384	0	0	-0.0897033	-0.364536	0.287837	0.695619	1.17646	0	0
0.06	-2.87266	1.46399	-1.90823	0.648194	-0.418596	0.939061	-0.263	0.0277948	-0.139902	0	0.135482	0	0	0.409789	-0.0523309	-0.220468	0.719022	0.201384	0	0	-0.293154	-0.0563114	-0.069278	-0.0509152	-0.263386	0.215303	0.490329	0.989157	0	0	-0.0801502	-0.368061	0.290946	0.694619	1.17114	0	0
0.07	-2.90222	1.46572	-1.87797	0.648566	-0.409092	0.93741	-0.274398	0.0314038	-0.140756	0	0.14382	0	0	0.396974	-0.0464055	-0.234935	0.634541	0.191854	0	0	-0.292398	-0.0535213	-0.0707829	-0.0478068	-0.261007	0.214201	0.485527	0.988474	0	0	-0.0783795	-0.368303	0.2942	0.696156	1.16629	0	0
0.08	-2.92992	1.46725	-1.85011	0.648863	-0.399441	0.935639	-0.286253	0.0342228	-0.140019	0	0.151895	0	0	0.381309	-0.0388835	-0.252153	0.544759	0.180455	0	0	-0.291546	-0.0511907	-0.0715346	-0.0454737	-0.259129	0.213279	0.481535	0.987834	0	0	-0.0765626	-0.36852	0.298832	0.697797	1.16191	0	0
0.09	-2.90882	1.47283	-1.87067	0.64985	-0.389401	0.932707	-0.290591	0.0333936	-0.133834	8.46038e-10	0.166529	0	0	0.370611	-0.0274773	-0.27181	0.455174	0.168484	0	0	-0.283445	-0.0545935	-0.0733671	-0.0451371	-0.254566	0.212303	0.477088	0.987144	0	0	-0.0783542	-0.372856	0.304271	0.703604	1.15832	0	0
0.1	-2.9214	1.47482	-1.8567	0.649749	-0.379516	0.930637	-0.302234	0.0344346	-0.135276	0	0.17564	0	0	0.351786	-0.0129473	-0.284784	0.358837	0.15024	0	0	-0.281426	-0.0535788	-0.0756302	-0.0427429	-0.252942	0.212091	0.473233	0.98533	0	0	-0.076984	-0.37284	0.309407	0.704315	1.15573	0	0
0.11	-2.93202	1.47762	-1.84377	0.649427	-0.369467	0.928355	-0.312313	0.0353718	-0.137843	0	0.184905	0	0	0.332315	0.00409744	-0.291078	0.262087	0.128906	0	0	-0.278238	-0.0524089	-0.0786003	-0.0408355	-0.251959	0.213181	0.469716	0.983746	0	0	-0.0757501	-0.372215	0.313731	0.703117	1.15511	0	0
0.12	-2.94446	1.47947	-1.82887	0.648991	-0.359166	0.926107	-0.323632	0.0359476	-0.140842	3.52744e-08	0.193584	0	0	0.307664	0.0235674	-0.285855	0.160756	0.101916	0	0	-0.275654	-0.0514547	-0.081226	-0.0397494	-0.251484	0.214392	0.467353	0.980565	0	0	-0.0742558	-0.371052	0.317847	0.700434	1.15711	0	0
